<?xml version="1.0" encoding="utf-8"?>
<!-- Generator: Adobe Illustrator 26.5.0, SVG Export Plug-In . SVG Version: 6.00 Build 0)  -->
<svg version="1.1" id="svg_null" xmlns="http://www.w3.org/2000/svg" xmlns:xlink="http://www.w3.org/1999/xlink" x="0px" y="0px"
	 viewBox="0 0 500 500" style="enable-background:new 0 0 500 500;" xml:space="preserve">
<style type="text/css">
	.st0{fill-rule:evenodd;clip-rule:evenodd;fill:#393E46;}
	.st1{fill:#EEEEEE;}
</style>
<g id="root">
	<rect id="background.accent" class="st0" width="500" height="500"/>
	<path id="shape.primary" class="st1" d="M49.3,250L250,450.7L450.7,250L250,49.3L49.3,250L49.3,250z M250,34l216,216L250,466
		L34,250L250,34z"/>
	<path id="shape.primary_00000065051115298741473150000007823915742124869053_" class="st1" d="M249.6,142c-0.4,0.1-0.7,0.2-1,0.3
		c-0.3,0.1-0.5,0.2-0.8,0.3c-12.8,0.3-25.1,2.8-36.5,7.3c-1.4,0.2-2.7,0.7-3.9,1.6c-11.4,5-21.6,12.1-30.5,20.5
		c-2.1,0.8-3.8,2.5-4.7,4.7c-8,8.6-14.7,18.5-19.7,29.3c0,0.1-0.2,0.2-0.3,0.3c-0.1,0.1-0.2,0.2-0.3,0.3c-1.6,1.6-2.4,3.8-2.3,6
		c0,0.1,0,0.2,0,0.3c-3.9,10.5-6.3,21.7-6.7,33.5c-1.5,2.6-1.5,5.7,0,8.3c0.5,12.2,3,24.1,7.2,35c0.2,1.6,0.8,3.1,1.8,4.4
		c4.8,11,11.4,20.9,19.4,29.6c0.7,2.9,3,5.2,5.9,6c8.7,8,18.6,14.6,29.5,19.4c1.2,1,2.6,1.6,4.1,1.8c11.6,4.6,24.3,7.3,37.5,7.5
		c0.1,0,0.2,0,0.3,0c0.5,0,1,0,1.5,0c0.6,0,1.2,0,1.8,0c0.3-0.1,0.5-0.2,0.8-0.3c12.8-0.3,25.1-2.8,36.5-7.3c1-0.2,2-0.5,2.8-1
		c0.4-0.2,0.7-0.4,1-0.5c0.2-0.1,0.4-0.2,0.5-0.3c10.9-4.9,20.8-11.4,29.5-19.4c2.9-0.7,5.2-3,5.9-6c8-8.6,14.3-18.5,19.1-29.3
		c0.1-0.1,0.2-0.2,0.3-0.3c0-0.1,0.2-0.2,0.3-0.3c0.2-0.4,0.4-0.8,0.5-1.3c0-0.1,0.2-0.2,0.3-0.3c0.4-0.8,0.6-1.7,0.8-2.6
		c4.6-11.7,7.3-24.4,7.5-37.6c0.1-0.5,0.1-1,0-1.6c0-0.4,0-0.7,0-1c0-0.5-0.1-1-0.3-1.6c-0.3-11.8-2.2-23.1-5.9-33.7
		c1-3.8-0.7-7.8-4.1-9.6c-5-10.5-11.7-20.2-19.7-28.5c-0.8-1.6-2.1-2.8-3.6-3.6c-9-8.6-19.3-15.4-30.8-20.5
		c-0.1-0.1-0.2-0.2-0.3-0.3c-0.1,0-0.2-0.2-0.3-0.3c-1.1-0.7-2.3-1.2-3.6-1.3c-11.6-4.6-24.1-7.3-37.2-7.5c-0.1,0-0.2,0-0.3,0
		C251.2,142.1,250.4,142,249.6,142L249.6,142z M241.1,159.4c0.4,0,0.7,0,1,0v13.7c-0.1,0.9,0,1.7,0.3,2.6c-4.5,0.5-8.7,1.3-12.9,2.6
		c-0.1-0.8-0.4-1.6-0.8-2.3l-5.2-13C229.1,161.3,235,160,241.1,159.4L241.1,159.4z M258.7,159.4c6.5,0.6,12.6,2,18.6,3.9l-5.2,12.7
		c-0.4,0.7-0.6,1.5-0.8,2.3c-4.2-1.3-8.5-2.1-12.9-2.6c0.2-0.8,0.3-1.7,0.3-2.6L258.7,159.4L258.7,159.4z M208,169.5l5.4,12.7
		c0.3,0.9,0.7,1.8,1.3,2.6c-3.8,2.1-7.5,4.5-10.9,7.3c-0.5-0.8-1.1-1.5-1.8-2.1l-9.8-9.8C197.1,176,202.3,172.5,208,169.5z
		 M292.8,169.5c5.7,3,10.9,6.6,15.8,10.6l-9.8,9.9c-0.7,0.6-1.3,1.3-1.8,2.1c-3.4-2.7-7-5.2-10.9-7.3c0.6-0.8,1-1.7,1.3-2.6
		L292.8,169.5L292.8,169.5z M180.6,191.8l9.8,9.8c0.6,0.7,1.3,1.3,2.1,1.8c-2.7,3.4-5.1,7-7.2,10.9c-0.8-0.6-1.6-1-2.6-1.3
		l-12.9-5.4C172.7,201.9,176.5,196.7,180.6,191.8L180.6,191.8z M320.2,191.8c4,4.8,7.6,10.2,10.6,15.8l-12.7,5.4
		c-0.9,0.3-1.8,0.7-2.6,1.3c-2.1-3.9-4.5-7.5-7.2-10.9c0.8-0.5,1.5-1.1,2.1-1.8L320.2,191.8L320.2,191.8z M250.4,192.1
		c32.1,0,57.9,25.9,57.9,58.1s-25.8,58.1-57.9,58.1c-32.1,0-57.9-25.9-57.9-58.1C192.5,217.9,218.3,192.1,250.4,192.1z M231.5,219.3
		l-11.9,11.9l18.9,18.9l-18.9,18.9l11.9,11.9l18.9-18.9l18.9,18.9l11.9-11.9l-18.9-18.9l18.9-18.9l-11.9-11.9l-18.9,18.9
		L231.5,219.3L231.5,219.3z M163.5,223.2l12.9,5.2c0.7,0.4,1.5,0.6,2.3,0.8c-1.2,4.2-1.8,8.7-2.3,13.2c-0.9-0.3-1.9-0.5-2.8-0.5
		h-13.7C160.5,235.4,161.7,229.2,163.5,223.2z M337.3,223.2c1.8,6,3,12.2,3.6,18.7h-13.7c-0.3,0-0.5,0-0.8,0c-0.3,0-0.5,0-0.8,0
		c-0.5,0.1-0.9,0.1-1.3,0.3c-0.5-4.4-1.1-8.8-2.3-13c0.8-0.1,1.6-0.4,2.3-0.8L337.3,223.2L337.3,223.2z M175.2,258.2
		c0.4,0,0.7,0,1,0c0.5,4.4,1.6,8.8,2.8,13c-0.2,0-0.4,0-0.5,0c-0.7,0.2-1.4,0.4-2.1,0.8l-12.9,5.2c-1.8-6-3-12.2-3.6-18.7h13.7
		C174.1,258.4,174.6,258.3,175.2,258.2z M324.6,258.2c0.8,0.2,1.7,0.3,2.6,0.3h13.7c-0.6,6.4-1.8,12.7-3.6,18.7l-12.9-5.2
		c-0.8-0.4-1.7-0.6-2.6-0.8C322.9,267,324.1,262.6,324.6,258.2L324.6,258.2z M185,285.7c2.2,4,4.7,7.9,7.5,11.4
		c-0.8,0.4-1.5,0.9-2.1,1.6l-10.1,10.1c-4.1-4.9-7.6-10.4-10.6-16.1l12.9-5.4C183.5,286.8,184.3,286.3,185,285.7L185,285.7z
		 M315.8,285.9c0.7,0.6,1.5,1,2.3,1.3l12.9,5.4c-3,5.7-6.5,11.2-10.6,16.1l-10.1-10.1c-0.6-0.6-1.3-1.1-2.1-1.6
		C311.1,293.6,313.6,289.9,315.8,285.9L315.8,285.9z M297.2,308c0.4,0.9,0.9,1.7,1.6,2.3l10.1,10.1c-4.9,4.1-10.3,7.6-16,10.6
		l-5.4-13c-0.4-0.9-0.9-1.7-1.6-2.3C289.9,313.5,293.6,310.8,297.2,308L297.2,308z M203.6,308.2c3.5,2.8,7.2,5.3,11.1,7.5
		c-0.5,0.7-1,1.5-1.3,2.3l-5.4,13c-5.7-3-11.1-6.5-16-10.6l10.1-10.1C202.7,309.7,203.2,309,203.6,308.2z M229.2,321.7
		c4.2,1.2,8.7,2.4,13.2,2.9c-0.2,0.8-0.3,1.7-0.3,2.6v13.7c-6.4-0.6-12.7-1.8-18.6-3.6l5.2-13C229,323.4,229.2,322.6,229.2,321.7
		L229.2,321.7z M271.6,321.7c0,0.9,0.2,1.7,0.5,2.6l5.2,13c-5.9,1.8-12.2,3-18.6,3.6v-13.7c0.1-0.9,0-1.7-0.3-2.6
		C262.9,324.1,267.4,322.9,271.6,321.7L271.6,321.7z"/>
</g>
</svg>
